<svg width="108.000000pt" height="122.000000pt" viewBox="0 0 108.000000 122.000000" xmlns="http://www.w3.org/2000/svg">
  <g transform="translate(0.000000,122.000000) scale(0.100000,-0.100000)" fill="#ffffff" stroke="none">
    <path d="M0 610 l0 -610 540 0 540 0 0 610 0 610 -540 0 -540 0 0 -610z m675
455 c66 -18 133 -52 185 -95 l35 -28 -24 -25 -23 -25 -43 33 c-24 18 -65 41
-92 51 l-48 19 -120 0 -120 0 -65 -31 c-99 -48 -185 -139 -221 -233 l-21 -56
4 -105 4 -105 21 -46 c11 -26 49 -77 84 -113 l62 -66 66 -33 66 -32 120 0 120
0 66 31 66 32 44 43 c65 64 89 97 111 146 11 25 22 69 25 99 l6 54 33 0 34 0
0 -33 c0 -47 -27 -132 -63 -201 l-31 -58 -65 -56 c-36 -30 -98 -70 -136 -89
l-70 -33 -70 -9 -70 -8 -61 8 c-89 12 -162 43 -245 102 l-72 52 -38 55 c-21
30 -48 80 -60 110 l-21 55 -5 86 -6 85 18 60 c9 32 31 85 48 118 l31 59 68 58
c75 64 125 93 208 120 l55 18 75 0 c42 1 102 -6 135 -14z m-3 -173 c26 -11 70
-42 98 -68 l50 -46 24 -52 c13 -28 27 -70 31 -93 l7 -43 -35 0 -35 0 -11 51
c-6 28 -25 70 -41 95 l-31 44 -45 26 -46 27 -74 5 -74 5 -45 -17 c-24 -10 -62
-35 -84 -58 l-41 -40 -15 -51 c-8 -28 -15 -67 -15 -86 0 -84 44 -170 109 -215
20 -14 63 -31 94 -37 l57 -12 0 -28 0 -28 -19 -6 c-27 -8 -67 3 -134 38 -70
36 -121 91 -155 165 l-25 55 0 67 0 67 27 59 c42 92 117 160 209 190 l42 14
65 -4 65 -3 47 -21z m-34 -169 c15 -11 37 -35 50 -53 l22 -33 0 -46 0 -46 -21
-34 -21 -34 -24 25 -25 24 11 29 11 28 -12 34 c-6 18 -19 38 -29 43 -28 15
-93 12 -117 -5 l-22 -16 -7 -33 -6 -34 12 -22 12 -23 -25 -25 -25 -25 -21 34
-21 34 0 37 c0 69 36 127 95 154 l30 14 53 -3 53 -4 27 -20z" />
  </g>
  <g transform="translate(0.000000,122.000000) scale(0.100000,-0.100000)" fill="#ea8d78" stroke="none">
    <path d="M424 1076 c-85 -20 -150 -55 -233 -126 l-70 -61 -35 -69 -34 -69 -12
-72 -12 -73 6 -68 c7 -82 37 -165 83 -236 l35 -52 75 -55 c84 -61 155 -91 251
-105 l66 -9 75 10 76 9 70 33 c38 19 100 59 136 89 l65 56 31 58 c39 74 63
155 63 211 l0 43 -44 0 -43 0 -6 -55 c-3 -30 -16 -79 -30 -108 l-24 -52 -60
-63 -61 -62 -68 -33 -69 -32 -110 0 -110 0 -66 32 -66 33 -65 68 -65 69 -22
57 c-11 31 -24 80 -27 110 l-6 53 11 53 c17 80 53 142 120 207 89 87 192 132
301 133 84 0 193 -40 258 -95 16 -14 34 -25 39 -25 15 0 53 45 53 62 0 24 -93
88 -169 115 l-66 25 -90 4 -90 4 -61 -14z" />
    <path d="M474 920 c-67 -14 -110 -36 -159 -81 -26 -24 -58 -66 -73 -94 l-26
-50 -4 -85 -4 -85 21 -56 c12 -32 39 -77 61 -101 l39 -44 61 -33 61 -33 47 -1
47 -2 3 41 3 40 -53 13 c-29 6 -70 23 -90 37 -42 29 -79 82 -98 138 l-13 39 6
52 c3 29 12 66 21 83 22 42 71 89 120 114 l41 21 55 1 55 1 58 -29 58 -28 34
-47 34 -46 11 -52 11 -53 46 0 46 0 -7 52 c-4 28 -18 75 -32 104 l-25 53 -54
50 -55 49 -47 16 c-62 20 -147 27 -199 16z" />
    <path d="M465 746 c-60 -27 -95 -85 -95 -157 0 -48 23 -107 45 -116 l17 -6 26
26 26 26 -13 39 -13 39 11 21 c6 12 25 28 40 37 l29 15 31 -11 32 -11 14 -28
14 -27 -11 -37 -11 -36 23 -25 c13 -14 30 -25 37 -25 7 0 22 15 33 33 l20 32
0 56 0 56 -22 33 c-13 18 -35 42 -51 54 l-27 20 -63 3 -62 3 -30 -14z" />
  </g>
  <g transform="translate(0.000000,122.000000) scale(0.100000,-0.100000)" fill="#5e3a69" stroke="none">
    <path d="M445 1080 l-6 -10 25 0 c14 0 26 5 26 10 0 6 -9 10 -19 10 -11 0 -23
-4 -26 -10z" />
    <path d="M610 1080 c0 -5 9 -10 21 -10 l20 0 -6 10 c-3 6 -13 10 -21 10 -8 0
-14 -4 -14 -10z" />
    <path d="M357 1056 c-62 -26 -142 -74 -134 -82 2 -2 31 12 63 31 32 20 78 41
102 48 23 6 42 15 42 19 0 12 -9 10 -73 -16z" />
    <path d="M666 1071 c5 -5 27 -14 49 -21 22 -7 60 -23 84 -36 24 -13 46 -22 48
-20 11 11 -146 86 -180 86 l-11 0 10 -9z" />
    <path d="M440 996 c-25 -7 -56 -18 -70 -24 -36 -15 -113 -72 -106 -79 3 -4 16
3 29 15 12 11 49 33 82 48 l60 28 93 4 c50 3 92 8 92 13 0 13 -128 10 -180 -5z" />
    <path d="M634 991 c4 -6 15 -11 24 -11 26 0 113 -43 148 -73 18 -15 36 -27 40
-27 5 0 24 14 42 31 l33 30 -23 19 c-30 26 -46 25 -23 0 l18 -20 -23 -25 -23
-24 -30 25 c-38 32 -112 69 -156 79 l-34 7 7 -11z" />
    <path d="M475 920 l-6 -10 20 0 c12 0 21 5 21 10 0 6 -6 10 -14 10 -8 0 -18
-4 -21 -10z" />
    <path d="M580 920 c0 -5 9 -10 21 -10 l20 0 -6 10 c-3 6 -13 10 -21 10 -8 0
-14 -4 -14 -10z" />
    <path d="M412 905 c-40 -18 -95 -55 -89 -62 3 -2 21 7 41 21 20 13 50 27 66
31 17 4 30 11 30 16 0 12 -9 11 -48 -6z" />
    <path d="M630 911 c0 -5 13 -12 30 -16 16 -4 45 -17 65 -31 39 -26 50 -30 40
-14 -8 13 -83 56 -112 65 l-23 6 0 -10z" />
    <path d="M121 881 c-22 -31 -64 -118 -76 -158 -3 -13 -2 -23 2 -23 5 0 14 19
20 43 7 23 28 69 48 101 38 63 42 88 6 37z" />
    <path d="M196 829 c-36 -41 -61 -87 -73 -138 l-6 -26 10 10 c5 6 18 31 27 57
10 26 33 64 51 85 31 34 42 53 32 53 -2 0 -20 -19 -41 -41z" />
    <path d="M485 841 c-39 -10 -88 -36 -104 -55 -19 -23 -7 -20 35 9 45 30 90 39
161 32 l54 -6 36 -21 c19 -11 38 -19 40 -16 8 8 -44 37 -93 52 -51 15 -82 16
-129 5z" />
    <path d="M264 786 c-9 -15 -14 -29 -12 -32 3 -2 13 7 22 22 10 14 15 28 13 31
-3 2 -13 -7 -23 -21z" />
    <path d="M800 802 c0 -6 5 -14 11 -18 6 -4 24 -34 40 -68 15 -33 28 -55 29
-48 0 19 -48 118 -65 132 l-15 12 0 -10z" />
    <path d="M327 723 c-14 -21 -28 -53 -32 -72 l-7 -34 10 7 c5 3 13 21 16 40 4
19 16 46 27 61 12 14 19 28 16 31 -3 3 -17 -11 -30 -33z" />
    <path d="M465 746 c-37 -17 -70 -52 -85 -90 -15 -41 -4 -45 13 -4 15 36 69 88
92 88 8 0 17 5 20 10 8 13 -4 12 -40 -4z" />
    <path d="M584 751 c4 -6 13 -11 21 -11 21 0 74 -49 95 -89 l19 -36 1 16 c0 22
-39 78 -70 100 -14 9 -36 20 -49 24 l-24 7 7 -11z" />
    <path d="M741 745 c-1 -5 8 -21 19 -35 11 -14 20 -20 20 -14 0 7 -9 22 -20 35
-10 13 -19 20 -19 14z" />
    <path d="M220 696 c-12 -33 -12 -36 -1 -36 9 0 22 52 15 59 -2 2 -8 -8 -14
-23z" />
    <path d="M35 677 c-4 -10 -5 -21 -1 -24 10 -10 18 4 13 24 l-4 18 -8 -18z" />
    <path d="M493 661 c-17 -11 -34 -29 -38 -41 -10 -31 3 -37 14 -7 6 14 20 31
32 38 l22 11 40 -5 39 -5 -9 9 c-5 5 -22 11 -38 14 l-30 6 -32 -20z" />
    <path d="M780 671 c0 -6 4 -13 10 -16 l10 -6 -6 15 c-7 18 -14 21 -14 7z" />
    <path d="M116 647 c-13 -29 0 -146 24 -210 l22 -58 58 -62 c32 -34 61 -59 64
-57 2 3 -20 32 -51 64 -30 32 -64 79 -76 105 l-21 46 -6 95 -6 95 -8 -18z" />
    <path d="M878 619 l4 -29 -36 0 -36 0 -6 25 c-4 14 -8 24 -11 22 -2 -3 -1 -16
3 -31 l6 -26 44 0 44 0 0 29 c0 17 -4 32 -8 35 -5 3 -6 -8 -4 -25z" />
    <path d="M610 638 c0 -4 4 -18 9 -31 l9 -24 -13 -27 -14 -26 26 -30 c13 -16
31 -30 39 -30 16 0 54 57 54 80 -1 8 -10 -2 -20 -22 -11 -20 -24 -39 -28 -42
-5 -3 -19 5 -31 18 l-22 23 11 27 c5 15 10 33 10 40 0 13 -29 56 -30 44z" />
    <path d="M207 623 c-11 -10 -8 -61 3 -68 l10 -6 0 40 c0 42 -2 46 -13 34z" />
    <path d="M710 590 l0 -24 12 12 12 12 -12 12 -12 12 0 -24z" />
    <path d="M970 579 c0 -5 5 -7 10 -4 6 3 10 8 10 11 0 2 -4 4 -10 4 -5 0 -10
-5 -10 -11z" />
    <path d="M450 577 c0 -5 5 -17 11 -29 l11 -20 -24 -25 -23 -24 -17 21 c-10 12
-18 28 -18 36 0 8 -4 14 -10 14 -15 0 -12 -11 10 -47 11 -18 26 -33 33 -33 18
0 57 42 57 61 0 16 -29 60 -30 46z" />
    <path d="M290 552 c0 -34 56 -140 67 -128 3 3 -4 18 -16 35 -12 16 -24 43 -27
60 -6 29 -24 54 -24 33z" />
    <path d="M30 516 c0 -8 5 -18 10 -21 l10 -6 0 20 c0 12 -4 21 -10 21 -5 0 -10
-6 -10 -14z" />
    <path d="M210 519 c0 -32 62 -138 100 -173 70 -63 180 -107 229 -91 l21 6 0
40 0 39 -12 0 c-7 0 -24 3 -37 7 l-24 6 7 -11 c4 -7 16 -12 27 -12 l19 0 0
-36 0 -37 -42 7 c-66 10 -141 51 -190 104 l-45 48 -18 49 c-10 28 -22 54 -27
60 l-8 9 0 -15z" />
    <path d="M965 509 c-4 -6 -5 -12 -2 -15 2 -3 7 2 10 11 7 17 1 20 -8 4z" />
    <path d="M1050 500 c0 -7 3 -10 7 -7 3 4 3 10 0 14 -4 3 -7 0 -7 -7z" />
    <path d="M40 472 c0 -24 42 -117 77 -170 l36 -54 61 -45 c61 -45 139 -86 186
-97 l25 -6 -25 12 c-100 47 -130 64 -186 108 -67 54 -111 115 -139 195 -10 28
-22 54 -27 60 l-8 9 0 -12z" />
    <path d="M941 435 c-11 -24 -31 -57 -45 -72 -14 -15 -26 -32 -26 -38 1 -21 70
72 84 112 8 24 13 43 11 43 -2 0 -13 -20 -24 -45z" />
    <path d="M1021 410 c-12 -33 -37 -79 -54 -102 -18 -24 -37 -50 -42 -58 l-8
-15 22 20 c13 11 34 39 48 63 28 47 66 142 60 148 -2 3 -14 -23 -26 -56z" />
    <path d="M390 385 c7 -8 17 -15 22 -15 l10 0 -12 15 c-7 8 -17 15 -22 15 l-10
0 12 -15z" />
    <path d="M455 350 c3 -5 11 -10 16 -10 6 0 7 5 4 10 -3 6 -11 10 -16 10 -6 0
-7 -4 -4 -10z" />
    <path d="M791 256 c-6 -7 -38 -25 -71 -40 -33 -15 -60 -29 -60 -31 0 -2 19 3
43 11 41 14 117 59 117 69 0 10 -18 5 -29 -9z" />
    <path d="M305 240 c3 -5 11 -10 16 -10 6 0 7 5 4 10 -3 6 -11 10 -16 10 -6 0
-7 -4 -4 -10z" />
    <path d="M854 199 c-49 -39 -81 -56 -164 -85 l-65 -24 35 6 c49 7 190 77 219
108 14 14 22 26 19 26 -3 0 -23 -14 -44 -31z" />
    <path d="M350 216 c0 -2 7 -7 16 -10 l15 -6 -6 10 c-6 10 -25 14 -25 6z" />
    <path d="M400 196 c0 -2 7 -7 16 -10 l15 -6 -6 10 c-6 10 -25 14 -25 6z" />
    <path d="M440 186 c0 -2 7 -7 16 -10 l15 -6 -6 10 c-6 10 -25 14 -25 6z" />
    <path d="M625 180 l-6 -10 15 6 c18 7 21 14 7 14 -6 0 -13 -4 -16 -10z" />
    <path d="M533 173 c9 -2 23 -2 30 0 6 3 -1 5 -18 5 l-30 0 18 -5z" />
    <path d="M438 98 c5 -5 16 -8 23 -6 l13 4 -23 7 -24 6 11 -11z" />
    <path d="M533 83 c9 -2 23 -2 30 0 6 3 -1 5 -18 5 l-30 0 18 -5z" />
  </g>
  <g transform="translate(0.000000,122.000000) scale(0.100000,-0.100000)" fill="#c27574" stroke="none">
    <path d="M465 1080 l-20 -9 22 0 c12 -1 25 4 28 9 7 12 -2 12 -30 0z" />
    <path d="M605 1080 c3 -5 16 -10 28 -9 l22 0 -20 9 c-28 12 -37 12 -30 0z" />
    <path d="M371 1058 c-29 -11 -88 -44 -130 -72 l-76 -51 -42 -62 c-43 -65 -75
-141 -87 -206 l-7 -39 9 6 c5 3 12 28 16 55 4 27 22 81 42 120 l35 70 72 62
c69 59 173 119 209 119 9 0 20 5 23 10 9 14 -2 12 -64 -12z" />
    <path d="M665 1071 c2 -5 25 -14 51 -21 46 -13 155 -77 169 -100 l7 -12 -28
-31 -29 -32 35 32 34 33 -28 29 c-16 16 -54 43 -85 59 -57 31 -135 57 -126 43z" />
    <path d="M476 1001 l-5 -8 24 5 c14 2 25 6 25 8 0 8 -39 4 -44 -5z" />
    <path d="M571 1006 c2 -2 17 -6 32 -10 l29 -7 -7 11 c-3 5 -18 10 -32 10 -15
0 -24 -2 -22 -4z" />
    <path d="M395 982 c-59 -26 -103 -50 -111 -64 -4 -6 10 -1 31 12 21 13 63 34
94 46 31 13 49 23 41 23 -8 0 -33 -8 -55 -17z" />
    <path d="M640 996 c0 -2 7 -7 16 -10 l15 -6 -6 10 c-6 10 -25 14 -25 6z" />
    <path d="M681 986 c2 -2 15 -9 29 -15 l25 -12 -19 15 c-11 9 -24 16 -30 16 -5
0 -7 -2 -5 -4z" />
    <path d="M755 948 c11 -6 32 -20 48 -30 15 -11 27 -17 27 -14 0 8 -73 56 -85
56 -5 0 -1 -6 10 -12z" />
    <path d="M467 919 c-93 -22 -184 -95 -227 -184 l-25 -50 -1 -75 -2 -75 7 75 8
75 26 51 26 51 51 46 50 45 47 16 c26 9 57 16 69 16 13 0 26 5 29 10 7 12 -5
11 -58 -1z" />
    <path d="M565 921 c3 -6 17 -11 29 -11 36 0 106 -27 143 -56 19 -14 36 -24 39
-21 6 6 -65 54 -106 70 -19 8 -52 18 -73 21 l-39 7 7 -10z" />
    <path d="M240 885 c-20 -24 -6 -28 15 -5 10 11 13 20 8 20 -6 0 -16 -7 -23
-15z" />
    <path d="M200 837 c-21 -17 -53 -68 -46 -74 3 -3 11 6 17 21 7 14 16 26 20 26
5 0 13 9 19 20 12 23 11 24 -10 7z" />
    <path d="M510 846 c0 -2 18 -6 39 -8 22 -2 37 0 35 4 -5 8 -74 11 -74 4z" />
    <path d="M428 819 c-21 -11 -38 -22 -38 -24 0 -3 17 3 38 13 20 11 44 22 52
25 l15 5 -15 1 c-8 0 -32 -9 -52 -20z" />
    <path d="M603 833 c4 -3 10 -3 14 0 3 4 0 7 -7 7 -7 0 -10 -3 -7 -7z" />
    <path d="M631 826 c10 -9 69 -36 69 -32 0 6 -55 36 -66 36 -4 0 -5 -2 -3 -4z" />
    <path d="M790 811 c0 -5 7 -14 16 -22 8 -7 24 -29 34 -48 11 -20 19 -31 20
-25 0 11 -59 104 -66 104 -2 0 -4 -4 -4 -9z" />
    <path d="M475 746 c-64 -29 -105 -92 -105 -162 l0 -36 22 -39 c12 -22 25 -39
30 -39 5 0 -1 13 -12 28 -12 16 -24 47 -27 69 l-5 41 11 35 c13 37 71 97 96
97 7 0 17 5 20 10 8 12 7 12 -30 -4z" />
    <path d="M533 753 c9 -2 23 -2 30 0 6 3 -1 5 -18 5 l-30 0 18 -5z" />
    <path d="M585 750 c4 -6 12 -10 19 -10 20 0 66 -39 87 -74 10 -17 19 -25 19
-19 0 21 -69 91 -101 102 l-30 10 6 -9z" />
    <path d="M320 718 c-11 -18 -20 -37 -20 -42 0 -11 1 -10 29 37 12 20 20 37 17
37 -4 0 -15 -15 -26 -32z" />
    <path d="M129 713 c-5 -14 -8 -30 -6 -36 1 -5 8 7 14 27 13 42 7 49 -8 9z" />
    <path d="M767 705 c9 -19 18 -33 21 -31 4 5 -26 66 -33 66 -3 0 3 -16 12 -35z" />
    <path d="M860 690 c0 -7 3 -10 7 -7 3 4 3 10 0 14 -4 3 -7 0 -7 -7z" />
    <path d="M516 671 l-5 -8 24 5 c14 2 25 6 25 8 0 8 -39 4 -44 -5z" />
    <path d="M570 666 c0 -2 7 -7 16 -10 l15 -6 -6 10 c-6 10 -25 14 -25 6z" />
    <path d="M114 645 c-3 -8 -4 -20 -2 -27 3 -7 7 -1 10 15 6 29 1 36 -8 12z" />
    <path d="M464 635 c-9 -14 -14 -28 -10 -32 3 -3 6 -1 6 5 0 7 9 21 20 32 11
11 16 20 10 20 -5 0 -17 -11 -26 -25z" />
    <path d="M790 650 c0 -7 3 -10 7 -7 3 4 3 10 0 14 -4 3 -7 0 -7 -7z" />
    <path d="M870 650 c0 -7 3 -10 7 -7 3 4 3 10 0 14 -4 3 -7 0 -7 -7z" />
    <path d="M290 640 c0 -7 3 -10 7 -7 3 4 3 10 0 14 -4 3 -7 0 -7 -7z" />
    <path d="M621 618 l11 -26 -11 -33 -11 -33 17 -15 17 -16 -12 16 -12 17 10 26
c14 37 13 49 -5 72 l-15 19 11 -27z" />
    <path d="M712 590 c0 -14 2 -19 5 -12 2 6 2 18 0 25 -3 6 -5 1 -5 -13z" />
    <path d="M800 600 c0 -7 3 -10 7 -7 3 4 3 10 0 14 -4 3 -7 0 -7 -7z" />
    <path d="M976 582 c-2 -4 12 -6 32 -4 56 5 62 10 15 11 -23 1 -44 -3 -47 -7z" />
    <path d="M450 570 c0 -7 3 -10 7 -7 3 4 3 10 0 14 -4 3 -7 0 -7 -7z" />
    <path d="M111 544 l1 -19 5 13 c3 7 2 16 -1 19 -3 4 -6 -2 -5 -13z" />
    <path d="M290 540 c0 -7 3 -10 7 -7 3 4 3 10 0 14 -4 3 -7 0 -7 -7z" />
    <path d="M1051 534 l1 -19 5 13 c3 7 2 16 -1 19 -3 4 -6 -2 -5 -13z" />
    <path d="M31 533 c0 -4 4 -17 9 -28 l9 -20 0 22 c1 12 -3 25 -9 28 -5 3 -10 3
-9 -2z" />
    <path d="M682 502 l-23 -37 26 28 c14 15 25 32 25 38 0 5 -1 9 -2 9 -2 -1 -13
-18 -26 -38z" />
    <path d="M971 524 l1 -19 5 13 c3 7 2 16 -1 19 -3 4 -6 -2 -5 -13z" />
    <path d="M219 504 c16 -58 50 -110 100 -157 27 -26 52 -47 55 -47 2 0 -21 26
-53 58 l-57 57 -19 50 c-21 57 -39 84 -26 39z" />
    <path d="M125 478 c19 -63 49 -112 99 -166 31 -32 74 -69 96 -81 22 -12 40
-20 40 -17 0 3 -14 13 -32 22 -18 9 -60 45 -95 80 l-62 64 -22 60 c-12 33 -24
60 -26 60 -2 0 -1 -10 2 -22z" />
    <path d="M310 481 c0 -6 4 -13 10 -16 l10 -6 -6 15 c-7 18 -14 21 -14 7z" />
    <path d="M960 480 c0 -7 3 -10 7 -7 3 4 3 10 0 14 -4 3 -7 0 -7 -7z" />
    <path d="M49 453 c26 -89 87 -185 143 -223 l33 -23 -41 39 c-49 47 -84 101
-109 169 -21 57 -39 84 -26 38z" />
    <path d="M1040 470 c0 -7 3 -10 7 -7 3 4 3 10 0 14 -4 3 -7 0 -7 -7z" />
    <path d="M950 450 c0 -7 3 -10 7 -7 3 4 3 10 0 14 -4 3 -7 0 -7 -7z" />
    <path d="M335 440 c3 -5 8 -10 11 -10 3 0 2 5 -1 10 -3 6 -8 10 -11 10 -3 0
-2 -4 1 -10z" />
    <path d="M1030 440 c0 -7 3 -10 7 -7 3 4 3 10 0 14 -4 3 -7 0 -7 -7z" />
    <path d="M931 403 l-11 -28 15 19 c8 11 15 23 15 28 0 15 -7 8 -19 -19z" />
    <path d="M1020 410 c0 -7 3 -10 7 -7 3 4 3 10 0 14 -4 3 -7 0 -7 -7z" />
    <path d="M390 385 c0 -10 78 -44 115 -49 l40 -6 -45 13 c-25 8 -60 21 -77 31
-18 9 -33 14 -33 11z" />
    <path d="M886 345 c-9 -14 -15 -25 -13 -25 2 0 13 11 25 25 12 14 18 25 13 25
-5 0 -16 -11 -25 -25z" />
    <path d="M974 318 l-7 -11 11 7 c7 4 12 9 12 12 0 8 -9 4 -16 -8z" />
    <path d="M939 273 l-14 -18 18 14 c16 13 21 21 13 21 -2 0 -10 -8 -17 -17z" />
    <path d="M433 273 c4 -3 10 -3 14 0 3 4 0 7 -7 7 -7 0 -10 -3 -7 -7z" />
    <path d="M473 263 c4 -3 10 -3 14 0 3 4 0 7 -7 7 -7 0 -10 -3 -7 -7z" />
    <path d="M760 234 c-30 -19 -50 -34 -44 -34 12 0 104 57 104 65 0 6 4 8 -60
-31z" />
    <path d="M859 203 l-14 -18 18 14 c16 13 21 21 13 21 -2 0 -10 -8 -17 -17z" />
    <path d="M380 200 c8 -5 20 -10 25 -10 6 0 3 5 -5 10 -8 5 -19 10 -25 10 -5 0
-3 -5 5 -10z" />
    <path d="M251 181 c24 -18 78 -49 69 -38 -9 10 -81 57 -87 57 -3 0 5 -8 18
-19z" />
    <path d="M683 193 c4 -3 10 -3 14 0 3 4 0 7 -7 7 -7 0 -10 -3 -7 -7z" />
    <path d="M423 183 c4 -3 10 -3 14 0 3 4 0 7 -7 7 -7 0 -10 -3 -7 -7z" />
    <path d="M653 183 c4 -3 10 -3 14 0 3 4 0 7 -7 7 -7 0 -10 -3 -7 -7z" />
    <path d="M468 173 c7 -3 16 -2 19 1 4 3 -2 6 -13 5 l-19 -1 13 -5z" />
    <path d="M608 173 c7 -3 16 -2 19 1 4 3 -2 6 -13 5 l-19 -1 13 -5z" />
    <path d="M814 168 l-7 -11 11 7 c7 4 12 9 12 12 0 8 -9 4 -16 -8z" />
    <path d="M340 130 c8 -5 20 -10 25 -10 6 0 3 5 -5 10 -8 5 -19 10 -25 10 -5 0
-3 -5 5 -10z" />
    <path d="M723 123 c4 -3 10 -3 14 0 3 4 0 7 -7 7 -7 0 -10 -3 -7 -7z" />
    <path d="M383 113 c4 -3 10 -3 14 0 3 4 0 7 -7 7 -7 0 -10 -3 -7 -7z" />
    <path d="M693 113 c4 -3 10 -3 14 0 3 4 0 7 -7 7 -7 0 -10 -3 -7 -7z" />
    <path d="M423 103 c4 -3 10 -3 14 0 3 4 0 7 -7 7 -7 0 -10 -3 -7 -7z" />
    <path d="M663 103 c4 -3 10 -3 14 0 3 4 0 7 -7 7 -7 0 -10 -3 -7 -7z" />
    <path d="M478 93 c6 -2 18 -2 25 0 6 3 1 5 -13 5 -14 0 -19 -2 -12 -5z" />
    <path d="M598 93 c7 -3 16 -2 19 1 4 3 -2 6 -13 5 l-19 -1 13 -5z" />
  </g>
  <g transform="translate(0.000000,122.000000) scale(0.100000,-0.100000)" fill="#83506d" stroke="none">
    <path d="M488 1083 c6 -2 18 -2 25 0 6 3 1 5 -13 5 -14 0 -19 -2 -12 -5z" />
    <path d="M588 1083 c6 -2 18 -2 25 0 6 3 1 5 -13 5 -14 0 -19 -2 -12 -5z" />
    <path d="M428 1073 c7 -3 16 -2 19 1 4 3 -2 6 -13 5 l-19 -1 13 -5z" />
    <path d="M653 1073 c4 -3 10 -3 14 0 3 4 0 7 -7 7 -7 0 -10 -3 -7 -7z" />
    <path d="M393 1063 c4 -3 10 -3 14 0 3 4 0 7 -7 7 -7 0 -10 -3 -7 -7z" />
    <path d="M693 1063 c4 -3 10 -3 14 0 3 4 0 7 -7 7 -7 0 -10 -3 -7 -7z" />
    <path d="M363 1053 c4 -3 10 -3 14 0 3 4 0 7 -7 7 -7 0 -10 -3 -7 -7z" />
    <path d="M730 1050 c8 -5 20 -10 25 -10 6 0 3 5 -5 10 -8 5 -19 10 -25 10 -5
0 -3 -5 5 -10z" />
    <path d="M274 1008 l-7 -11 11 7 c12 7 16 16 8 16 -3 0 -8 -5 -12 -12z" />
    <path d="M815 1010 c3 -5 8 -10 11 -10 3 0 2 5 -1 10 -3 6 -8 10 -11 10 -3 0
-2 -4 1 -10z" />
    <path d="M244 988 l-7 -11 11 7 c12 7 16 16 8 16 -3 0 -8 -5 -12 -12z" />
    <path d="M458 993 c7 -3 16 -2 19 1 4 3 -2 6 -13 5 l-19 -1 13 -5z" />
    <path d="M618 993 c6 -2 18 -2 25 0 6 3 1 5 -13 5 -14 0 -19 -2 -12 -5z" />
    <path d="M840 996 c0 -2 8 -10 18 -17 l17 -14 -14 18 c-13 16 -21 21 -21 13z" />
    <path d="M413 983 c4 -3 10 -3 14 0 3 4 0 7 -7 7 -7 0 -10 -3 -7 -7z" />
    <path d="M668 983 c7 -3 16 -2 19 1 4 3 -2 6 -13 5 l-19 -1 13 -5z" />
    <path d="M180 939 l-45 -41 48 37 c41 33 53 45 45 45 -2 0 -23 -18 -48 -41z" />
    <path d="M344 954 l-19 -15 25 12 c31 14 36 19 24 19 -6 0 -19 -7 -30 -16z" />
    <path d="M720 966 c0 -2 7 -7 16 -10 l15 -6 -6 10 c-6 10 -25 14 -25 6z" />
    <path d="M304 928 l-7 -11 11 7 c12 7 16 16 8 16 -3 0 -8 -5 -12 -12z" />
    <path d="M785 930 c3 -5 8 -10 11 -10 3 0 2 5 -1 10 -3 6 -8 10 -11 10 -3 0
-2 -4 1 -10z" />
    <path d="M523 923 c15 -2 37 -2 50 0 12 2 0 4 -28 4 -27 0 -38 -2 -22 -4z" />
    <path d="M453 913 c4 -3 10 -3 14 0 3 4 0 7 -7 7 -7 0 -10 -3 -7 -7z" />
    <path d="M618 913 c7 -3 16 -2 19 1 4 3 -2 6 -13 5 l-19 -1 13 -5z" />
    <path d="M244 878 l-29 -33 33 29 c30 28 37 36 29 36 -2 0 -16 -15 -33 -32z" />
    <path d="M423 903 c4 -3 10 -3 14 0 3 4 0 7 -7 7 -7 0 -10 -3 -7 -7z" />
    <path d="M653 903 c4 -3 10 -3 14 0 3 4 0 7 -7 7 -7 0 -10 -3 -7 -7z" />
    <path d="M835 890 c3 -5 8 -10 11 -10 3 0 2 5 -1 10 -3 6 -8 10 -11 10 -3 0
-2 -4 1 -10z" />
    <path d="M124 878 l-7 -11 11 7 c12 7 16 16 8 16 -3 0 -8 -5 -12 -12z" />
    <path d="M354 868 l-7 -11 11 7 c12 7 16 16 8 16 -3 0 -8 -5 -12 -12z" />
    <path d="M725 870 c3 -5 8 -10 11 -10 3 0 2 5 -1 10 -3 6 -8 10 -11 10 -3 0
-2 -4 1 -10z" />
    <path d="M104 848 l-7 -11 11 7 c7 4 12 9 12 12 0 8 -9 4 -16 -8z" />
    <path d="M299 823 l-24 -28 28 24 c15 14 27 26 27 28 0 8 -8 1 -31 -24z" />
    <path d="M780 825 c13 -14 26 -25 28 -25 3 0 -5 11 -18 25 -13 14 -26 25 -28
25 -3 0 5 -11 18 -25z" />
    <path d="M483 833 c4 -3 10 -3 14 0 3 4 0 7 -7 7 -7 0 -10 -3 -7 -7z" />
    <path d="M588 833 c7 -3 16 -2 19 1 4 3 -2 6 -13 5 l-19 -1 13 -5z" />
    <path d="M190 820 l-15 -10 12 0 c6 0 15 5 18 10 8 12 4 12 -15 0z" />
    <path d="M155 769 c-9 -17 -15 -33 -13 -35 3 -2 12 12 21 31 21 43 13 47 -8 4z" />
    <path d="M264 778 l-7 -11 11 7 c12 7 16 16 8 16 -3 0 -8 -5 -12 -12z" />
    <path d="M359 763 l-24 -28 28 24 c15 14 27 26 27 28 0 8 -8 1 -31 -24z" />
    <path d="M720 765 c13 -14 26 -25 28 -25 3 0 -5 11 -18 25 -13 14 -26 25 -28
25 -3 0 5 -11 18 -25z" />
    <path d="M825 770 c3 -5 8 -10 11 -10 3 0 2 5 -1 10 -3 6 -8 10 -11 10 -3 0
-2 -4 1 -10z" />
    <path d="M60 760 c0 -7 3 -10 7 -7 3 4 3 10 0 14 -4 3 -7 0 -7 -7z" />
    <path d="M240 739 c-7 -11 -10 -23 -7 -25 2 -2 9 7 15 21 14 30 7 33 -8 4z" />
    <path d="M503 753 c4 -3 10 -3 14 0 3 4 0 7 -7 7 -7 0 -10 -3 -7 -7z" />
    <path d="M573 753 c4 -3 10 -3 14 0 3 4 0 7 -7 7 -7 0 -10 -3 -7 -7z" />
    <path d="M50 730 c0 -7 3 -10 7 -7 3 4 3 10 0 14 -4 3 -7 0 -7 -7z" />
    <path d="M444 728 l-7 -11 11 7 c12 7 16 16 8 16 -3 0 -8 -5 -12 -12z" />
    <path d="M635 730 c3 -5 8 -10 11 -10 3 0 2 5 -1 10 -3 6 -8 10 -11 10 -3 0
-2 -4 1 -10z" />
    <path d="M324 718 l-7 -11 11 7 c12 7 16 16 8 16 -3 0 -8 -5 -12 -12z" />
    <path d="M130 710 c0 -7 3 -10 7 -7 3 4 3 10 0 14 -4 3 -7 0 -7 -7z" />
    <path d="M40 700 c0 -7 3 -10 7 -7 3 4 3 10 0 14 -4 3 -7 0 -7 -7z" />
    <path d="M220 690 c0 -7 3 -10 7 -7 3 4 3 10 0 14 -4 3 -7 0 -7 -7z" />
    <path d="M394 678 l-7 -11 11 7 c12 7 16 16 8 16 -3 0 -8 -5 -12 -12z" />
    <path d="M685 680 c3 -5 8 -10 11 -10 3 0 2 5 -1 10 -3 6 -8 10 -11 10 -3 0
-2 -4 1 -10z" />
    <path d="M121 664 l1 -19 5 13 c3 7 2 16 -1 19 -3 4 -6 -2 -5 -13z" />
    <path d="M300 670 c0 -7 3 -10 7 -7 3 4 3 10 0 14 -4 3 -7 0 -7 -7z" />
    <path d="M211 654 l1 -19 5 13 c3 7 2 16 -1 19 -3 4 -6 -2 -5 -13z" />
    <path d="M495 660 l-6 -10 15 6 c18 7 21 14 7 14 -6 0 -13 -4 -16 -10z" />
    <path d="M870 660 c0 -7 3 -10 7 -7 3 4 3 10 0 14 -4 3 -7 0 -7 -7z" />
    <path d="M32 640 c0 -14 2 -19 5 -12 2 6 2 18 0 25 -3 6 -5 1 -5 -13z" />
    <path d="M590 656 c0 -2 8 -10 18 -17 l17 -14 -14 18 c-13 16 -21 21 -21 13z" />
    <path d="M790 640 c0 -7 3 -10 7 -7 3 4 3 10 0 14 -4 3 -7 0 -7 -7z" />
    <path d="M293 595 c0 -27 2 -38 4 -22 2 15 2 37 0 50 -2 12 -4 0 -4 -28z" />
    <path d="M370 620 c0 -7 3 -10 7 -7 3 4 3 10 0 14 -4 3 -7 0 -7 -7z" />
    <path d="M710 620 c0 -7 3 -10 7 -7 3 4 3 10 0 14 -4 3 -7 0 -7 -7z" />
    <path d="M452 590 c0 -14 2 -19 5 -12 2 6 2 18 0 25 -3 6 -5 1 -5 -13z" />
    <path d="M880 600 c0 -7 3 -10 7 -7 3 4 3 10 0 14 -4 3 -7 0 -7 -7z" />
    <path d="M972 560 c0 -14 2 -19 5 -12 2 6 2 18 0 25 -3 6 -5 1 -5 -13z" />
    <path d="M371 554 l1 -19 5 13 c3 7 2 16 -1 19 -3 4 -6 -2 -5 -13z" />
    <path d="M620 560 c0 -7 3 -10 7 -7 3 4 3 10 0 14 -4 3 -7 0 -7 -7z" />
    <path d="M710 560 c0 -7 3 -10 7 -7 3 4 3 10 0 14 -4 3 -7 0 -7 -7z" />
    <path d="M32 540 c0 -14 2 -19 5 -12 2 6 2 18 0 25 -3 6 -5 1 -5 -13z" />
    <path d="M465 539 l6 -16 -31 -27 c-17 -14 -28 -26 -23 -26 5 0 22 14 38 30
l29 30 -13 13 -12 12 6 -16z" />
    <path d="M210 530 c0 -7 3 -10 7 -7 3 4 3 10 0 14 -4 3 -7 0 -7 -7z" />
    <path d="M1051 514 l1 -19 5 13 c3 7 2 16 -1 19 -3 4 -6 -2 -5 -13z" />
    <path d="M121 504 l1 -19 5 13 c3 7 2 16 -1 19 -3 4 -6 -2 -5 -13z" />
    <path d="M300 510 c0 -7 3 -10 7 -7 3 4 3 10 0 14 -4 3 -7 0 -7 -7z" />
    <path d="M220 490 c0 -7 3 -10 7 -7 3 4 3 10 0 14 -4 3 -7 0 -7 -7z" />
    <path d="M960 490 c0 -7 3 -10 7 -7 3 4 3 10 0 14 -4 3 -7 0 -7 -7z" />
    <path d="M40 480 c0 -7 3 -10 7 -7 3 4 3 10 0 14 -4 3 -7 0 -7 -7z" />
    <path d="M655 480 c3 -5 8 -10 11 -10 3 0 2 5 -1 10 -3 6 -8 10 -11 10 -3 0
-2 -4 1 -10z" />
    <path d="M130 470 c0 -7 3 -10 7 -7 3 4 3 10 0 14 -4 3 -7 0 -7 -7z" />
    <path d="M50 440 c0 -7 3 -10 7 -7 3 4 3 10 0 14 -4 3 -7 0 -7 -7z" />
    <path d="M140 440 c0 -7 3 -10 7 -7 3 4 3 10 0 14 -4 3 -7 0 -7 -7z" />
    <path d="M360 415 c13 -14 26 -25 28 -25 3 0 -5 11 -18 25 -13 14 -26 25 -28
25 -3 0 5 -11 18 -25z" />
    <path d="M265 400 c3 -5 8 -10 11 -10 3 0 2 5 -1 10 -3 6 -8 10 -11 10 -3 0
-2 -4 1 -10z" />
    <path d="M70 390 c0 -7 3 -10 7 -7 3 4 3 10 0 14 -4 3 -7 0 -7 -7z" />
    <path d="M95 340 c3 -5 8 -10 11 -10 3 0 2 5 -1 10 -3 6 -8 10 -11 10 -3 0 -2
-4 1 -10z" />
    <path d="M205 340 c3 -5 8 -10 11 -10 3 0 2 5 -1 10 -3 6 -8 10 -11 10 -3 0
-2 -4 1 -10z" />
    <path d="M483 343 c4 -3 10 -3 14 0 3 4 0 7 -7 7 -7 0 -10 -3 -7 -7z" />
    <path d="M345 320 c3 -5 8 -10 11 -10 3 0 2 5 -1 10 -3 6 -8 10 -11 10 -3 0
-2 -4 1 -10z" />
    <path d="M839 293 l-24 -28 28 24 c15 14 27 26 27 28 0 8 -8 1 -31 -24z" />
    <path d="M954 288 l-7 -11 11 7 c7 4 12 9 12 12 0 8 -9 4 -16 -8z" />
    <path d="M135 280 c3 -5 8 -10 11 -10 3 0 2 5 -1 10 -3 6 -8 10 -11 10 -3 0
-2 -4 1 -10z" />
    <path d="M280 266 c0 -2 8 -10 18 -17 l17 -14 -14 18 c-13 16 -21 21 -21 13z" />
    <path d="M463 263 c4 -3 10 -3 14 0 3 4 0 7 -7 7 -7 0 -10 -3 -7 -7z" />
    <path d="M523 253 c4 -3 10 -3 14 0 3 4 0 7 -7 7 -7 0 -10 -3 -7 -7z" />
    <path d="M904 234 l-19 -15 23 11 c12 6 22 13 22 15 0 8 -5 6 -26 -11z" />
    <path d="M225 200 c3 -5 8 -10 11 -10 3 0 2 5 -1 10 -3 6 -8 10 -11 10 -3 0
-2 -4 1 -10z" />
    <path d="M844 188 l-7 -11 11 7 c7 4 12 9 12 12 0 8 -9 4 -16 -8z" />
    <path d="M433 183 c4 -3 10 -3 14 0 3 4 0 7 -7 7 -7 0 -10 -3 -7 -7z" />
    <path d="M643 183 c4 -3 10 -3 14 0 3 4 0 7 -7 7 -7 0 -10 -3 -7 -7z" />
    <path d="M265 170 c3 -5 8 -10 11 -10 3 0 2 5 -1 10 -3 6 -8 10 -11 10 -3 0
-2 -4 1 -10z" />
    <path d="M498 173 c6 -2 18 -2 25 0 6 3 1 5 -13 5 -14 0 -19 -2 -12 -5z" />
    <path d="M573 173 c9 -2 23 -2 30 0 6 3 -1 5 -18 5 l-30 0 18 -5z" />
    <path d="M413 103 c4 -3 10 -3 14 0 3 4 0 7 -7 7 -7 0 -10 -3 -7 -7z" />
    <path d="M463 93 c4 -3 10 -3 14 0 3 4 0 7 -7 7 -7 0 -10 -3 -7 -7z" />
    <path d="M623 93 c4 -3 10 -3 14 0 3 4 0 7 -7 7 -7 0 -10 -3 -7 -7z" />
  </g>
  <g transform="translate(0.000000,122.000000) scale(0.100000,-0.100000)" fill="#a06170" stroke="none">
    <path d="M528 1083 c12 -2 32 -2 45 0 12 2 2 4 -23 4 -25 0 -35 -2 -22 -4z" />
    <path d="M443 1073 c4 -3 10 -3 14 0 3 4 0 7 -7 7 -7 0 -10 -3 -7 -7z" />
    <path d="M643 1073 c4 -3 10 -3 14 0 3 4 0 7 -7 7 -7 0 -10 -3 -7 -7z" />
    <path d="M528 1003 c12 -2 30 -2 40 0 9 3 -1 5 -23 4 l-40 0 23 -4z" />
    <path d="M274 908 l-7 -11 11 7 c12 7 16 16 8 16 -3 0 -8 -5 -12 -12z" />
    <path d="M463 913 c4 -3 10 -3 14 0 3 4 0 7 -7 7 -7 0 -10 -3 -7 -7z" />
    <path d="M825 900 c3 -5 8 -10 11 -10 3 0 2 5 -1 10 -3 6 -8 10 -11 10 -3 0
-2 -4 1 -10z" />
    <path d="M214 848 l-7 -11 11 7 c12 7 16 16 8 16 -3 0 -8 -5 -12 -12z" />
    <path d="M384 788 l-7 -11 11 7 c12 7 16 16 8 16 -3 0 -8 -5 -12 -12z" />
    <path d="M695 790 c3 -5 8 -10 11 -10 3 0 2 5 -1 10 -3 6 -8 10 -11 10 -3 0
-2 -4 1 -10z" />
    <path d="M513 753 c4 -3 10 -3 14 0 3 4 0 7 -7 7 -7 0 -10 -3 -7 -7z" />
    <path d="M563 753 c4 -3 10 -3 14 0 3 4 0 7 -7 7 -7 0 -10 -3 -7 -7z" />
    <path d="M745 740 c3 -5 8 -10 11 -10 3 0 2 5 -1 10 -3 6 -8 10 -11 10 -3 0
-2 -4 1 -10z" />
    <path d="M40 690 c0 -7 3 -10 7 -7 3 4 3 10 0 14 -4 3 -7 0 -7 -7z" />
    <path d="M33 590 c0 -25 2 -35 4 -22 2 12 2 32 0 45 -2 12 -4 2 -4 -23z" />
    <path d="M113 585 l0 -40 4 23 c2 12 2 30 0 40 -3 9 -5 -1 -4 -23z" />
    <path d="M710 610 c0 -7 3 -10 7 -7 3 4 3 10 0 14 -4 3 -7 0 -7 -7z" />
    <path d="M710 570 c0 -7 3 -10 7 -7 3 4 3 10 0 14 -4 3 -7 0 -7 -7z" />
    <path d="M290 550 c0 -7 3 -10 7 -7 3 4 3 10 0 14 -4 3 -7 0 -7 -7z" />
    <path d="M210 540 c0 -7 3 -10 7 -7 3 4 3 10 0 14 -4 3 -7 0 -7 -7z" />
    <path d="M970 540 c0 -7 3 -10 7 -7 3 4 3 10 0 14 -4 3 -7 0 -7 -7z" />
    <path d="M630 506 c0 -2 8 -10 18 -17 l17 -14 -14 18 c-13 16 -21 21 -21 13z" />
    <path d="M40 490 c0 -7 3 -10 7 -7 3 4 3 10 0 14 -4 3 -7 0 -7 -7z" />
    <path d="M385 390 c3 -5 8 -10 11 -10 3 0 2 5 -1 10 -3 6 -8 10 -11 10 -3 0
-2 -4 1 -10z" />
    <path d="M864 318 l-7 -11 11 7 c7 4 12 9 12 12 0 8 -9 4 -16 -8z" />
    <path d="M115 310 c3 -5 8 -10 11 -10 3 0 2 5 -1 10 -3 6 -8 10 -11 10 -3 0
-2 -4 1 -10z" />
    <path d="M145 270 c3 -5 8 -10 11 -10 3 0 2 5 -1 10 -3 6 -8 10 -11 10 -3 0
-2 -4 1 -10z" />
    <path d="M814 268 l-7 -11 11 7 c7 4 12 9 12 12 0 8 -9 4 -16 -8z" />
    <path d="M215 210 c3 -5 8 -10 11 -10 3 0 2 5 -1 10 -3 6 -8 10 -11 10 -3 0
-2 -4 1 -10z" />
    <path d="M483 173 c4 -3 10 -3 14 0 3 4 0 7 -7 7 -7 0 -10 -3 -7 -7z" />
    <path d="M613 93 c4 -3 10 -3 14 0 3 4 0 7 -7 7 -7 0 -10 -3 -7 -7z" />
  </g>
</svg>