<?xml version="1.0" standalone="no"?>
<!DOCTYPE svg PUBLIC "-//W3C//DTD SVG 20010904//EN"
 "http://www.w3.org/TR/2001/REC-SVG-20010904/DTD/svg10.dtd">
<svg version="1.0" xmlns="http://www.w3.org/2000/svg"
 width="105.000000pt" height="122.000000pt" viewBox="0 0 105.000000 122.000000"
 preserveAspectRatio="xMidYMid meet">

<g transform="translate(0.000000,122.000000) scale(0.100000,-0.100000)"
fill="#000000" stroke="none">
<path d="M0 610 l0 -610 525 0 525 0 0 610 0 610 -525 0 -525 0 0 -610z m702
442 c54 -19 178 -97 178 -112 0 -3 -11 -17 -24 -29 l-24 -22 -50 36 c-256 184
-608 38 -663 -274 -30 -169 69 -358 227 -435 253 -124 540 23 597 304 l13 65
37 3 c44 4 46 -5 22 -106 -47 -199 -204 -347 -406 -383 -146 -26 -301 23 -413
131 -134 129 -186 309 -141 485 44 167 192 312 361 354 63 16 221 7 286 -17z
m-39 -162 c103 -49 179 -147 193 -252 l7 -48 -42 0 c-38 0 -41 2 -41 28 0 38
-42 122 -76 154 -45 42 -112 68 -175 68 -206 1 -321 -236 -196 -402 35 -47
123 -98 169 -98 26 0 28 -3 28 -41 l0 -42 -39 6 c-97 13 -207 90 -251 177 -90
177 0 398 189 464 62 22 172 15 234 -14z m-56 -156 c52 -25 83 -78 83 -142 0
-49 -23 -112 -40 -112 -15 0 -61 58 -51 64 21 13 12 75 -14 101 -64 65 -173
-10 -136 -92 10 -22 9 -29 -10 -49 -13 -13 -25 -24 -29 -24 -17 0 -42 67 -42
111 0 121 126 196 239 143z"/>
</g>
</svg>
